<svg width="256" height="256" fill="none" xmlns="http://www.w3.org/2000/svg"><path d="M255.95 109.794v111.25a5.726 5.726 0 0 0-.406.9c-2.381 9.187-8.681 14.112-18.238 14.119H19.138a18.626 18.626 0 0 1-4.95-.413C5.53 233.275.575 226.706.568 217.419V83.769c0-12.069 7.313-19.344 19.438-19.375H97.3c.031 8.643.1 17.281.081 25.925 0 9.375-.056 18.75 1.425 28.087 4.488 28.294 17.238 52.163 38.594 71.25 10.275 9.2 21.481 17.294 32.263 25.894 5.093 4.069 9.037 4.006 14.143 0 8.663-6.858 17.323-13.721 25.982-20.587 24.087-19.167 38.9-43.886 44.437-74.157.669-3.687.663-7.431 1.725-11.012Zm-198.269 64.75h32.9c.994 0 2.263.4 2.388-1.35.45-6.519-1.019-11.875-7.856-15.238-4.538-2.25-9.075-4.5-13.638-6.7-2.069-1-3.75-2.425-3.925-4.775-.25-3.25-.781-6.543 1.763-9.431 1.625-1.875 2.63-4.212 3.506-6.562.256-.688.481-1.607 1.025-1.944 5.156-3.219 3.281-8.213 2.581-12.388-.381-2.287-.981-4.575-1.019-6.943v-4.488c0-6.644-3.225-11.006-9.63-12.831a28.88 28.88 0 0 0-15.982 0c-6.194 1.75-9.525 6.169-9.65 12.625-.05 2.406-.031 4.819 0 7.225 0 1.344-.5 2.537-.806 3.794-.988 4.062-2.088 8.3 1.062 12.043a5.91 5.91 0 0 1 1 2.25c.719 2.4 1.569 4.832 3.125 6.744 1.969 2.431 2.044 5.075 2.069 7.931 0 3.125-1.25 5.194-3.963 6.6-3.837 1.982-7.556 4.2-11.43 6.088-6.25 3.056-8.957 8.006-8.707 14.881.075 1.963.594 2.5 2.55 2.5 10.869-.075 21.75-.031 32.637-.031Zm.794 22H91.1a9.55 9.55 0 0 0 3.2-.338 4.29 4.29 0 0 0 2.183-6.645 4.293 4.293 0 0 0-2.183-1.555 9.4 9.4 0 0 0-3.2-.35H25.381a8.732 8.732 0 0 0-3.43.457 4.31 4.31 0 0 0-2.671 3.987 4.315 4.315 0 0 0 2.67 3.988c1.1.386 2.268.545 3.431.468l33.094-.012Zm-17.931 17.544H56.75c3.356 0 5.338-1.588 5.419-4.219.081-2.631-1.931-4.569-5.125-4.588a2369.881 2369.881 0 0 0-32.656 0c-3.25 0-5.238 1.925-5.188 4.544.05 2.619 2.075 4.25 5.388 4.269 5.318.012 10.637-.006 15.956-.006Z" fill="#8FB9C4"/><mask id="a" style="mask-type:alpha" maskUnits="userSpaceOnUse" x="0" y="64" width="256" height="173"><path d="M255.95 109.794v111.25a5.726 5.726 0 0 0-.406.9c-2.381 9.187-8.681 14.112-18.238 14.119H19.138a18.626 18.626 0 0 1-4.95-.413C5.53 233.275.575 226.706.568 217.419V83.769c0-12.069 7.313-19.344 19.438-19.375H97.3c.031 8.643.1 17.281.081 25.925 0 9.375-.056 18.75 1.425 28.087 4.488 28.294 17.238 52.163 38.594 71.25 10.275 9.2 21.481 17.294 32.263 25.894 5.093 4.069 9.037 4.006 14.143 0 8.663-6.858 17.323-13.721 25.982-20.587 24.087-19.167 38.9-43.886 44.437-74.157.669-3.687.663-7.431 1.725-11.012Zm-198.269 64.75h32.9c.994 0 2.263.4 2.388-1.35.45-6.519-1.019-11.875-7.856-15.238-4.538-2.25-9.075-4.5-13.638-6.7-2.069-1-3.75-2.425-3.925-4.775-.25-3.25-.781-6.543 1.763-9.431 1.625-1.875 2.63-4.212 3.506-6.562.256-.688.481-1.607 1.025-1.944 5.156-3.219 3.281-8.213 2.581-12.388-.381-2.287-.981-4.575-1.019-6.943v-4.488c0-6.644-3.225-11.006-9.63-12.831a28.88 28.88 0 0 0-15.982 0c-6.194 1.75-9.525 6.169-9.65 12.625-.05 2.406-.031 4.819 0 7.225 0 1.344-.5 2.537-.806 3.794-.988 4.062-2.088 8.3 1.062 12.043a5.91 5.91 0 0 1 1 2.25c.719 2.4 1.569 4.832 3.125 6.744 1.969 2.431 2.044 5.075 2.069 7.931 0 3.125-1.25 5.194-3.963 6.6-3.837 1.982-7.556 4.2-11.43 6.088-6.25 3.056-8.957 8.006-8.707 14.881.075 1.963.594 2.5 2.55 2.5 10.869-.075 21.75-.031 32.637-.031Zm.794 22H91.1a9.55 9.55 0 0 0 3.2-.338 4.29 4.29 0 0 0 2.183-6.645 4.293 4.293 0 0 0-2.183-1.555 9.4 9.4 0 0 0-3.2-.35H25.381a8.732 8.732 0 0 0-3.43.457 4.31 4.31 0 0 0-2.671 3.987 4.315 4.315 0 0 0 2.67 3.988c1.1.386 2.268.545 3.431.468l33.094-.012Zm-17.931 17.544H56.75c3.356 0 5.338-1.588 5.419-4.219.081-2.631-1.931-4.569-5.125-4.588a2369.881 2369.881 0 0 0-32.656 0c-3.25 0-5.238 1.925-5.188 4.544.05 2.619 2.075 4.25 5.388 4.269 5.318.012 10.637-.006 15.956-.006Z" fill="#E5E5E5"/></mask><g mask="url(#a)"><path fill="#9EC8D2" d="M0 64h128v172.032H0z"/></g><path d="M255.95 109.794c-1.062 3.581-1.056 7.325-1.725 10.975-5.512 30.3-20.325 55.019-44.437 74.156-8.65 6.875-17.311 13.738-25.982 20.588-5.106 4.037-9.05 4.1-14.144 0-10.781-8.6-21.987-16.694-32.262-25.894-21.356-19.094-34.106-42.963-38.594-71.25-1.481-9.319-1.444-18.7-1.425-28.088 0-8.643-.05-17.28-.081-25.925-.381-5.625 2.5-8.675 7.413-11.012 21.125-10 42.15-20.269 63.125-30.569 5.987-2.937 11.65-2.956 17.631 0a8297.104 8297.104 0 0 0 63.356 30.731c3.044 1.463 5.788 3.094 7.106 6.4l.019 49.888Zm-39.631-5.519c.081-21.681-17.613-39.375-39.494-39.462a39.374 39.374 0 0 0-39.7 39.193c-.181 21.769 17.662 39.663 39.556 39.669a39.68 39.68 0 0 0 39.638-39.4Z" fill="#1E9A53"/><mask id="b" style="mask-type:alpha" maskUnits="userSpaceOnUse" x="97" y="20" width="159" height="199"><path d="M255.95 109.794c-1.062 3.581-1.056 7.325-1.725 10.975-5.512 30.3-20.325 55.019-44.437 74.156-8.65 6.875-17.311 13.738-25.982 20.588-5.106 4.037-9.05 4.1-14.144 0-10.781-8.6-21.987-16.694-32.262-25.894-21.356-19.094-34.106-42.963-38.594-71.25-1.481-9.319-1.444-18.7-1.425-28.088 0-8.643-.05-17.28-.081-25.925-.381-5.625 2.5-8.675 7.413-11.012 21.125-10 42.15-20.269 63.125-30.569 5.987-2.937 11.65-2.956 17.631 0a8297.104 8297.104 0 0 0 63.356 30.731c3.044 1.463 5.788 3.094 7.106 6.4l.019 49.888Zm-39.631-5.519c.081-21.681-17.613-39.375-39.494-39.462a39.374 39.374 0 0 0-39.7 39.193c-.181 21.769 17.662 39.663 39.556 39.669a39.68 39.68 0 0 0 39.638-39.4Z" fill="#24AD5F"/></mask><g mask="url(#b)"><path fill="#24AD5F" d="M95 13.5h82.5V226H95z"/></g><path d="M57.681 174.544c-10.887 0-21.768-.044-32.65.043-1.956 0-2.5-.55-2.55-2.5-.25-6.875 2.438-11.825 8.706-14.881 3.875-1.875 7.594-4.106 11.432-6.087 2.718-1.407 3.987-3.488 3.962-6.6 0-2.857-.1-5.5-2.069-7.932-1.556-1.912-2.406-4.343-3.124-6.743a5.903 5.903 0 0 0-1-2.25c-3.125-3.75-2.05-7.982-1.063-12.044.306-1.25.813-2.45.806-3.794 0-2.406-.044-4.819 0-7.225.125-6.456 3.456-10.875 9.65-12.625a28.88 28.88 0 0 1 15.982 0c6.406 1.825 9.618 6.188 9.63 12.831v4.488c.038 2.369.626 4.656 1.02 6.944.7 4.175 2.575 9.168-2.582 12.387-.544.338-.769 1.25-1.025 1.944-.875 2.35-1.875 4.712-3.506 6.562-2.544 2.888-2.013 6.182-1.763 9.432.188 2.35 1.875 3.75 3.925 4.775 4.563 2.2 9.1 4.45 13.638 6.7 6.838 3.387 8.306 8.718 7.856 15.237-.125 1.75-1.394 1.35-2.387 1.35H62.156l-4.475-.012Z" fill="#3F5C6C"/><mask id="c" style="mask-type:alpha" maskUnits="userSpaceOnUse" x="22" y="90" width="72" height="85"><path d="M57.681 174.544c-10.887 0-21.768-.044-32.65.043-1.956 0-2.5-.55-2.55-2.5-.25-6.875 2.438-11.825 8.706-14.881 3.875-1.875 7.594-4.106 11.432-6.087 2.718-1.407 3.987-3.488 3.962-6.6 0-2.857-.1-5.5-2.069-7.932-1.556-1.912-2.406-4.343-3.124-6.743a5.903 5.903 0 0 0-1-2.25c-3.125-3.75-2.05-7.982-1.063-12.044.306-1.25.813-2.45.806-3.794 0-2.406-.044-4.819 0-7.225.125-6.456 3.456-10.875 9.65-12.625a28.88 28.88 0 0 1 15.982 0c6.406 1.825 9.618 6.188 9.63 12.831v4.488c.038 2.369.626 4.656 1.02 6.944.7 4.175 2.575 9.168-2.582 12.387-.544.338-.769 1.25-1.025 1.944-.875 2.35-1.875 4.712-3.506 6.562-2.544 2.888-2.013 6.182-1.763 9.432.188 2.35 1.875 3.75 3.925 4.775 4.563 2.2 9.1 4.45 13.638 6.7 6.838 3.387 8.306 8.718 7.856 15.237-.125 1.75-1.394 1.35-2.387 1.35H62.156l-4.475-.012Z" fill="#3F5C6C"/></mask><g mask="url(#c)"><path fill="#4C6F83" d="M22.528 82.432h35.328v99.84H22.528z"/></g><path d="M58.475 196.544H25.35a8.643 8.643 0 0 1-3.431-.469 4.31 4.31 0 0 1-2.67-3.987 4.313 4.313 0 0 1 2.67-3.988 8.75 8.75 0 0 1 3.43-.456H91.1a9.375 9.375 0 0 1 3.2.35 4.297 4.297 0 0 1 3.02 4.1 4.296 4.296 0 0 1-3.02 4.1 9.524 9.524 0 0 1-3.2.337l-32.624.013ZM40.544 214.088H24.587c-3.312 0-5.33-1.65-5.387-4.269-.056-2.619 1.937-4.519 5.187-4.544 10.888-.067 21.773-.067 32.657 0 3.193 0 5.206 1.994 5.125 4.588-.082 2.593-2.063 4.2-5.42 4.218-5.4.019-10.805.007-16.205.007Z" fill="#415E6E"/><path d="M216.319 104.275a39.683 39.683 0 0 1-39.638 39.375c-21.875 0-39.737-17.9-39.556-39.669a39.375 39.375 0 0 1 39.7-39.194c21.881.132 39.575 17.807 39.494 39.488Zm-54.113 1.012a4.154 4.154 0 0 0-3.75 2.375 4.092 4.092 0 0 0 .625 4.863c1.969 2.131 4.044 4.175 6.1 6.25 3.306 3.294 5.331 3.294 8.631 0 6.413-6.4 12.817-12.808 19.213-19.225a11.253 11.253 0 0 0 1.875-2.3 3.982 3.982 0 0 0-.281-4.456 4.15 4.15 0 0 0-3.85-1.875c-1.5.087-2.582 1.012-3.6 2.031-5.163 5.181-10.419 10.275-15.469 15.562-1.688 1.769-2.738 2.094-4.375.038-1.263-1.6-2.688-3.256-5.119-3.263Z" fill="#EFEFEF"/><mask id="d" style="mask-type:alpha" maskUnits="userSpaceOnUse" x="137" y="64" width="80" height="80"><path d="M216.319 104.275a39.683 39.683 0 0 1-39.638 39.375c-21.875 0-39.737-17.9-39.556-39.669a39.375 39.375 0 0 1 39.7-39.194c21.881.132 39.575 17.807 39.494 39.488Zm-54.113 1.012a4.154 4.154 0 0 0-3.75 2.375 4.092 4.092 0 0 0 .625 4.863c1.969 2.131 4.044 4.175 6.1 6.25 3.306 3.294 5.331 3.294 8.631 0 6.413-6.4 12.817-12.808 19.213-19.225a11.253 11.253 0 0 0 1.875-2.3 3.982 3.982 0 0 0-.281-4.456 4.15 4.15 0 0 0-3.85-1.875c-1.5.087-2.582 1.012-3.6 2.031-5.163 5.181-10.419 10.275-15.469 15.562-1.688 1.769-2.738 2.094-4.375.038-1.263-1.6-2.688-3.256-5.119-3.263Z" fill="#FDFEFD"/></mask><g mask="url(#d)"><path fill="#fff" d="M124 59h53.5v88H124z"/></g><path d="M162.206 105.288c2.432 0 3.857 1.662 5.119 3.25 1.638 2.056 2.688 1.731 4.375-.038 5.05-5.287 10.306-10.381 15.469-15.563 1.019-1.018 2.1-1.943 3.6-2.03a4.149 4.149 0 0 1 3.85 1.874 3.98 3.98 0 0 1 .281 4.456 11.253 11.253 0 0 1-1.875 2.3 7035.957 7035.957 0 0 1-19.212 19.226c-3.3 3.293-5.325 3.293-8.632 0-2.056-2.057-4.131-4.1-6.1-6.25a4.09 4.09 0 0 1-.625-4.863 4.15 4.15 0 0 1 3.75-2.362Z" fill="#24AD5F"/><path d="M19 187.5a4.5 4.5 0 0 1 4.5-4.5H57v9H23.5a4.5 4.5 0 0 1-4.5-4.5ZM18.5 204.75a4.25 4.25 0 0 1 4.25-4.25H40v8.5H22.75a4.25 4.25 0 0 1-4.25-4.25Z" fill="#4C6F83"/></svg>