<svg width="30" height="30" fill="none" xmlns="http://www.w3.org/2000/svg"><path d="M17.226 16.406c.37-.308.838-.474 1.32-.468 1.99-.01 3.985-.005 5.974 0 1.187 0 2.395 1.028 2.608 2.2.039.22.057.443.055.667 0 1.904.006 3.807-.005 5.71 0 .505-.126.982-.465 1.38l-.057.06a.632.632 0 0 0-.17.03c-.451.21-.926.269-1.42.266-1.776-.01-3.552-.017-5.328 0a2.86 2.86 0 0 1-2.87-2.871c.017-1.835.008-3.672 0-5.504-.001-.4.078-.795.235-1.163a.49.49 0 0 0 .062-.251l.061-.056Z" fill="#DEE7F3"/><path d="M4.107 3.281c.375-.3.841-.463 1.321-.462 1.999-.013 3.997-.013 5.995 0 1.346.008 2.629 1.29 2.636 2.636.012 1.99.012 3.978 0 5.967.003.49-.16.967-.465 1.351l-.056.067h.006a.846.846 0 0 0-.198.035c-.43.184-.895.271-1.362.256-1.803-.01-3.606 0-5.409-.004a2.83 2.83 0 0 1-2.821-2.82V4.632c0-.136.028-.27.039-.404.027-.316.227-.579.248-.892v.006l.066-.062ZM17.227 3.281c.375-.3.84-.463 1.32-.462a459.99 459.99 0 0 1 5.995 0c1.346.008 2.63 1.29 2.637 2.636.012 1.99.012 3.978 0 5.967.004.49-.16.966-.463 1.35l-.057.067h.007a.398.398 0 0 0-.225.045c-.395.17-.821.253-1.25.246a860.823 860.823 0 0 0-5.497 0 2.634 2.634 0 0 1-.774-.113c-1.264-.39-2.045-1.454-2.045-2.772V4.66c0-.145.025-.289.038-.432.03-.317.228-.58.25-.893v.007l.064-.06ZM4.107 16.406c.375-.3.841-.463 1.321-.462 1.999-.013 3.997-.013 5.995 0 1.346.008 2.629 1.29 2.637 2.636.011 1.99.011 3.978 0 5.967.002.489-.162.964-.466 1.348l-.056.066h.006a.851.851 0 0 0-.198.035 3.21 3.21 0 0 1-1.36.254c-1.804-.01-3.607 0-5.41-.004a2.83 2.83 0 0 1-2.821-2.821v-5.673c0-.136.028-.27.039-.404.027-.317.227-.58.248-.892v.006l.065-.056Z" fill="#0794FE"/><path d="M4.042 3.334c-.022.313-.222.576-.248.893-.011.133-.04.268-.04.403v5.674a2.83 2.83 0 0 0 2.822 2.821c1.803 0 3.606-.005 5.41.004a3.21 3.21 0 0 0 1.36-.256.851.851 0 0 1 .199-.035c-.508.775-1.25 1.194-2.151 1.21-1.97.036-3.94.036-5.91 0-1.427-.023-2.638-1.254-2.657-2.683a211.778 211.778 0 0 1 0-5.852c.017-.915.432-1.663 1.215-2.179ZM17.162 3.334c-.022.313-.22.576-.25.893-.013.143-.037.287-.038.432v5.586c0 1.317.781 2.382 2.047 2.768.251.076.512.114.774.112 1.832 0 3.665-.005 5.497 0 .43.007.855-.077 1.25-.246a.399.399 0 0 1 .225-.045c-.507.775-1.25 1.194-2.15 1.21-1.97.037-3.94.037-5.91 0-1.427-.023-2.64-1.254-2.657-2.683a211.818 211.818 0 0 1 0-5.852c.013-.911.428-1.659 1.212-2.175ZM4.042 16.456c-.022.312-.222.575-.248.892-.011.133-.04.268-.04.404v5.673a2.83 2.83 0 0 0 2.822 2.825c1.803 0 3.606-.006 5.41.004a3.21 3.21 0 0 0 1.36-.256.851.851 0 0 1 .199-.036c-.508.776-1.25 1.195-2.151 1.211-1.97.036-3.94.036-5.91 0-1.427-.023-2.638-1.254-2.657-2.683a211.78 211.78 0 0 1 0-5.852c.017-.92.432-1.667 1.215-2.183Z" fill="#166CDC"/><path d="M17.166 16.462a.489.489 0 0 1-.063.251 2.942 2.942 0 0 0-.234 1.163c.007 1.835.016 3.672 0 5.504a2.86 2.86 0 0 0 2.871 2.87 346.63 346.63 0 0 1 5.328 0c.495 0 .969-.055 1.42-.266a.63.63 0 0 1 .17-.03c-.39.648-.994.988-1.705 1.173-.228.05-.461.07-.694.061h-5.44c-1.329 0-2.404-.798-2.775-2.077a2.44 2.44 0 0 1-.102-.658c-.008-1.94-.029-3.881.006-5.821.016-.916.426-1.666 1.218-2.17Z" fill="#CBD7E4"/></svg>