<svg width="1440" height="1441" viewBox="0 0 1440 1441" fill="none" xmlns="http://www.w3.org/2000/svg">
<g clip-path="url(#clip0_354_1892)">
<path d="M1440 0.5H0V1440.5H1440V0.5Z" fill="white"/>
<path d="M72.32 16.5H16V72.82H72.32V16.5Z" fill="black"/>
<path d="M128.64 16.5H72.32V72.82H128.64V16.5Z" fill="black"/>
<path d="M184.96 16.5H128.64V72.82H184.96V16.5Z" fill="black"/>
<path d="M241.28 16.5H184.96V72.82H241.28V16.5Z" fill="black"/>
<path d="M297.6 16.5H241.28V72.82H297.6V16.5Z" fill="black"/>
<path d="M353.92 16.5H297.6V72.82H353.92V16.5Z" fill="black"/>
<path d="M410.24 16.5H353.92V72.82H410.24V16.5Z" fill="black"/>
<path d="M522.88 16.5H466.56V72.82H522.88V16.5Z" fill="black"/>
<path d="M804.48 16.5H748.16V72.82H804.48V16.5Z" fill="black"/>
<path d="M860.8 16.5H804.48V72.82H860.8V16.5Z" fill="black"/>
<path d="M917.12 16.5H860.8V72.82H917.12V16.5Z" fill="black"/>
<path d="M973.44 16.5H917.12V72.82H973.44V16.5Z" fill="black"/>
<path d="M1086.08 16.5H1029.76V72.82H1086.08V16.5Z" fill="black"/>
<path d="M1142.4 16.5H1086.08V72.82H1142.4V16.5Z" fill="black"/>
<path d="M1198.72 16.5H1142.4V72.82H1198.72V16.5Z" fill="black"/>
<path d="M1255.04 16.5H1198.72V72.82H1255.04V16.5Z" fill="black"/>
<path d="M1311.36 16.5H1255.04V72.82H1311.36V16.5Z" fill="black"/>
<path d="M1367.68 16.5H1311.36V72.82H1367.68V16.5Z" fill="black"/>
<path d="M1424 16.5H1367.68V72.82H1424V16.5Z" fill="black"/>
<path d="M72.32 72.82H16V129.14H72.32V72.82Z" fill="black"/>
<path d="M410.24 72.82H353.92L353.92 129.14H410.24V72.82Z" fill="black"/>
<path d="M748.16 72.82H691.84V129.14H748.16V72.82Z" fill="black"/>
<path d="M804.48 72.82H748.16V129.14H804.48V72.82Z" fill="black"/>
<path d="M860.8 72.82H804.48V129.14H860.8V72.82Z" fill="black"/>
<path d="M1086.08 72.82H1029.76V129.14H1086.08V72.82Z" fill="black"/>
<path d="M1424 72.82H1367.68V129.14H1424V72.82Z" fill="black"/>
<path d="M72.32 129.14H16V185.46H72.32V129.14Z" fill="black"/>
<path d="M184.96 129.14H128.64V185.46H184.96V129.14Z" fill="black"/>
<path d="M241.28 129.14H184.96V185.46H241.28V129.14Z" fill="black"/>
<path d="M297.6 129.14H241.28V185.46H297.6V129.14Z" fill="black"/>
<path d="M410.24 129.14H353.92V185.46H410.24V129.14Z" fill="black"/>
<path d="M579.2 129.14H522.88V185.46H579.2V129.14Z" fill="black"/>
<path d="M635.52 129.14H579.2V185.46H635.52V129.14Z" fill="black"/>
<path d="M748.16 129.14H691.84V185.46H748.16V129.14Z" fill="black"/>
<path d="M804.48 129.14H748.16V185.46H804.48V129.14Z" fill="black"/>
<path d="M860.8 129.14H804.48V185.46H860.8V129.14Z" fill="black"/>
<path d="M917.12 129.14H860.8V185.46H917.12V129.14Z" fill="black"/>
<path d="M1086.08 129.14H1029.76V185.46H1086.08V129.14Z" fill="black"/>
<path d="M1198.72 129.14H1142.4V185.46H1198.72V129.14Z" fill="black"/>
<path d="M1255.04 129.14H1198.72V185.46H1255.04V129.14Z" fill="black"/>
<path d="M1311.36 129.14H1255.04V185.46H1311.36V129.14Z" fill="black"/>
<path d="M1424 129.14H1367.68V185.46H1424V129.14Z" fill="black"/>
<path d="M72.32 185.46H16V241.78H72.32V185.46Z" fill="black"/>
<path d="M184.96 185.46H128.64V241.78H184.96V185.46Z" fill="black"/>
<path d="M241.28 185.46H184.96V241.78H241.28V185.46Z" fill="black"/>
<path d="M297.6 185.46H241.28V241.78H297.6V185.46Z" fill="black"/>
<path d="M410.24 185.46H353.92V241.78H410.24V185.46Z" fill="black"/>
<path d="M522.88 185.46H466.56V241.78H522.88V185.46Z" fill="black"/>
<path d="M579.2 185.46H522.88V241.78H579.2V185.46Z" fill="black"/>
<path d="M635.52 185.46H579.2V241.78H635.52V185.46Z" fill="black"/>
<path d="M691.84 185.46H635.52V241.78H691.84V185.46Z" fill="black"/>
<path d="M804.48 185.46H748.16V241.78H804.48V185.46Z" fill="black"/>
<path d="M860.8 185.46H804.48V241.78H860.8V185.46Z" fill="black"/>
<path d="M1086.08 185.46H1029.76V241.78H1086.08V185.46Z" fill="black"/>
<path d="M1198.72 185.46H1142.4V241.78H1198.72V185.46Z" fill="black"/>
<path d="M1255.04 185.46H1198.72V241.78H1255.04V185.46Z" fill="black"/>
<path d="M1311.36 185.46H1255.04V241.78H1311.36V185.46Z" fill="black"/>
<path d="M1424 185.46H1367.68V241.78H1424V185.46Z" fill="black"/>
<path d="M72.32 241.78H16V298.1H72.32V241.78Z" fill="black"/>
<path d="M184.96 241.78H128.64V298.1H184.96V241.78Z" fill="black"/>
<path d="M241.28 241.78H184.96V298.1H241.28V241.78Z" fill="black"/>
<path d="M297.6 241.78H241.28V298.1H297.6V241.78Z" fill="black"/>
<path d="M410.24 241.78H353.92V298.1H410.24V241.78Z" fill="black"/>
<path d="M522.88 241.78H466.56V298.1H522.88V241.78Z" fill="black"/>
<path d="M635.52 241.78H579.2V298.1H635.52V241.78Z" fill="black"/>
<path d="M691.84 241.78H635.52V298.1H691.84V241.78Z" fill="black"/>
<path d="M917.12 241.78H860.8L860.8 298.1H917.12V241.78Z" fill="black"/>
<path d="M973.44 241.78H917.12V298.1H973.44V241.78Z" fill="black"/>
<path d="M1086.08 241.78H1029.76V298.1H1086.08V241.78Z" fill="black"/>
<path d="M1198.72 241.78H1142.4V298.1H1198.72V241.78Z" fill="black"/>
<path d="M1255.04 241.78H1198.72V298.1H1255.04V241.78Z" fill="black"/>
<path d="M1311.36 241.78H1255.04V298.1H1311.36V241.78Z" fill="black"/>
<path d="M1424 241.78H1367.68V298.1H1424V241.78Z" fill="black"/>
<path d="M72.32 298.1H16V354.42H72.32V298.1Z" fill="black"/>
<path d="M410.24 298.1H353.92V354.42H410.24V298.1Z" fill="black"/>
<path d="M522.88 298.1H466.56V354.42H522.88V298.1Z" fill="black"/>
<path d="M804.48 298.1H748.16V354.42H804.48V298.1Z" fill="black"/>
<path d="M860.8 298.1H804.48V354.42H860.8L860.8 298.1Z" fill="black"/>
<path d="M1086.08 298.1H1029.76V354.42H1086.08V298.1Z" fill="black"/>
<path d="M1424 298.1H1367.68V354.42H1424V298.1Z" fill="black"/>
<path d="M72.32 354.42H16V410.74H72.32V354.42Z" fill="black"/>
<path d="M128.64 354.42L72.32 354.42V410.74H128.64V354.42Z" fill="black"/>
<path d="M184.96 354.42H128.64V410.74H184.96V354.42Z" fill="black"/>
<path d="M241.28 354.42H184.96V410.74H241.28V354.42Z" fill="black"/>
<path d="M297.6 354.42H241.28V410.74H297.6V354.42Z" fill="black"/>
<path d="M353.92 354.42L297.6 354.42V410.74H353.92L353.92 354.42Z" fill="black"/>
<path d="M410.24 354.42H353.92L353.92 410.74H410.24V354.42Z" fill="black"/>
<path d="M522.88 354.42H466.56V410.74H522.88V354.42Z" fill="black"/>
<path d="M635.52 354.42H579.2V410.74H635.52V354.42Z" fill="black"/>
<path d="M748.16 354.42L691.84 354.42V410.74H748.16V354.42Z" fill="black"/>
<path d="M860.8 354.42H804.48V410.74H860.8V354.42Z" fill="black"/>
<path d="M973.44 354.42H917.12V410.74H973.44V354.42Z" fill="black"/>
<path d="M1086.08 354.42H1029.76V410.74H1086.08V354.42Z" fill="black"/>
<path d="M1142.4 354.42L1086.08 354.42V410.74H1142.4V354.42Z" fill="black"/>
<path d="M1198.72 354.42H1142.4V410.74H1198.72V354.42Z" fill="black"/>
<path d="M1255.04 354.42H1198.72V410.74H1255.04V354.42Z" fill="black"/>
<path d="M1311.36 354.42H1255.04V410.74H1311.36V354.42Z" fill="black"/>
<path d="M1367.68 354.42L1311.36 354.42V410.74H1367.68V354.42Z" fill="black"/>
<path d="M1424 354.42H1367.68V410.74H1424V354.42Z" fill="black"/>
<path d="M522.88 410.74H466.56V467.06H522.88V410.74Z" fill="black"/>
<path d="M804.48 410.74H748.16V467.06H804.48V410.74Z" fill="black"/>
<path d="M860.8 410.74H804.48V467.06H860.8V410.74Z" fill="black"/>
<path d="M72.32 467.06H16V523.38H72.32V467.06Z" fill="black"/>
<path d="M128.64 467.06H72.32V523.38H128.64V467.06Z" fill="black"/>
<path d="M184.96 467.06H128.64V523.38H184.96V467.06Z" fill="black"/>
<path d="M297.6 467.06H241.28V523.38H297.6V467.06Z" fill="black"/>
<path d="M410.24 467.06H353.92V523.38H410.24V467.06Z" fill="black"/>
<path d="M522.88 467.06H466.56V523.38H522.88V467.06Z" fill="black"/>
<path d="M748.16 467.06H691.84V523.38H748.16V467.06Z" fill="black"/>
<path d="M804.48 467.06H748.16V523.38H804.48V467.06Z" fill="black"/>
<path d="M917.12 467.06H860.8L860.8 523.38H917.12V467.06Z" fill="black"/>
<path d="M973.44 467.06H917.12V523.38H973.44V467.06Z" fill="black"/>
<path d="M1029.76 467.06H973.44V523.38H1029.76V467.06Z" fill="black"/>
<path d="M1086.08 467.06H1029.76V523.38H1086.08V467.06Z" fill="black"/>
<path d="M1142.4 467.06H1086.08V523.38H1142.4V467.06Z" fill="black"/>
<path d="M1198.72 467.06H1142.4V523.38H1198.72V467.06Z" fill="black"/>
<path d="M1255.04 467.06H1198.72V523.38H1255.04V467.06Z" fill="black"/>
<path d="M1424 467.06H1367.68V523.38H1424V467.06Z" fill="black"/>
<path d="M128.64 523.38H72.32V579.7H128.64V523.38Z" fill="black"/>
<path d="M297.6 523.38H241.28V579.7H297.6V523.38Z" fill="black"/>
<path d="M466.56 523.38H410.24V579.7H466.56V523.38Z" fill="black"/>
<path d="M579.2 523.38H522.88V579.7H579.2V523.38Z" fill="black"/>
<path d="M804.48 523.38H748.16V579.7H804.48V523.38Z" fill="black"/>
<path d="M973.44 523.38H917.12V579.7H973.44V523.38Z" fill="black"/>
<path d="M1086.08 523.38H1029.76V579.7H1086.08V523.38Z" fill="black"/>
<path d="M1198.72 523.38H1142.4V579.7H1198.72V523.38Z" fill="black"/>
<path d="M1311.36 523.38H1255.04V579.7H1311.36V523.38Z" fill="black"/>
<path d="M1424 523.38H1367.68V579.7H1424V523.38Z" fill="black"/>
<path d="M72.32 579.7H16V636.02H72.32V579.7Z" fill="black"/>
<path d="M184.96 579.7H128.64V636.02H184.96V579.7Z" fill="black"/>
<path d="M353.92 579.7H297.6V636.02H353.92V579.7Z" fill="black"/>
<path d="M410.24 579.7H353.92V636.02H410.24V579.7Z" fill="black"/>
<path d="M804.48 579.7H748.16V636.02H804.48V579.7Z" fill="black"/>
<path d="M973.44 579.7H917.12V636.02H973.44V579.7Z" fill="black"/>
<path d="M1142.4 579.7H1086.08V636.02H1142.4V579.7Z" fill="black"/>
<path d="M1198.72 579.7H1142.4V636.02H1198.72V579.7Z" fill="black"/>
<path d="M72.32 636.02H16V692.34H72.32V636.02Z" fill="black"/>
<path d="M128.64 636.02H72.32V692.34H128.64V636.02Z" fill="black"/>
<path d="M184.96 636.02H128.64V692.34H184.96V636.02Z" fill="black"/>
<path d="M297.6 636.02H241.28V692.34H297.6V636.02Z" fill="black"/>
<path d="M579.2 636.02H522.88V692.34H579.2V636.02Z" fill="black"/>
<path d="M860.8 636.02H804.48V692.34H860.8V636.02Z" fill="black"/>
<path d="M917.12 636.02H860.8V692.34H917.12V636.02Z" fill="black"/>
<path d="M1029.76 636.02H973.44V692.34H1029.76V636.02Z" fill="black"/>
<path d="M1086.08 636.02H1029.76V692.34H1086.08V636.02Z" fill="black"/>
<path d="M72.32 692.34H16V748.66H72.32V692.34Z" fill="black"/>
<path d="M410.24 692.34H353.92V748.66H410.24V692.34Z" fill="black"/>
<path d="M466.56 692.34H410.24V748.66H466.56V692.34Z" fill="black"/>
<path d="M635.52 692.34H579.2V748.66H635.52V692.34Z" fill="black"/>
<path d="M748.16 692.34H691.84V748.66H748.16V692.34Z" fill="black"/>
<path d="M860.8 692.34H804.48V748.66H860.8V692.34Z" fill="black"/>
<path d="M1029.76 692.34H973.44V748.66H1029.76V692.34Z" fill="black"/>
<path d="M1142.4 692.34H1086.08V748.66H1142.4V692.34Z" fill="black"/>
<path d="M1198.72 692.34H1142.4V748.66H1198.72V692.34Z" fill="black"/>
<path d="M1311.36 692.34H1255.04V748.66H1311.36V692.34Z" fill="black"/>
<path d="M72.32 748.66H16V804.98H72.32V748.66Z" fill="black"/>
<path d="M184.96 748.66H128.64V804.98H184.96V748.66Z" fill="black"/>
<path d="M241.28 748.66H184.96V804.98H241.28V748.66Z" fill="black"/>
<path d="M297.6 748.66H241.28V804.98H297.6V748.66Z" fill="black"/>
<path d="M466.56 748.66H410.24V804.98H466.56V748.66Z" fill="black"/>
<path d="M635.52 748.66H579.2V804.98H635.52V748.66Z" fill="black"/>
<path d="M748.16 748.66H691.84V804.98H748.16V748.66Z" fill="black"/>
<path d="M1029.76 748.66H973.44V804.98H1029.76V748.66Z" fill="black"/>
<path d="M1198.72 748.66H1142.4V804.98H1198.72V748.66Z" fill="black"/>
<path d="M1424 748.66H1367.68V804.98H1424V748.66Z" fill="black"/>
<path d="M128.64 804.98H72.32V861.3H128.64V804.98Z" fill="black"/>
<path d="M410.24 804.98H353.92V861.3H410.24V804.98Z" fill="black"/>
<path d="M466.56 804.98H410.24V861.3H466.56V804.98Z" fill="black"/>
<path d="M522.88 804.98H466.56V861.3H522.88V804.98Z" fill="black"/>
<path d="M691.84 804.98H635.52V861.3H691.84V804.98Z" fill="black"/>
<path d="M748.16 804.98H691.84V861.3H748.16V804.98Z" fill="black"/>
<path d="M804.48 804.98H748.16V861.3H804.48V804.98Z" fill="black"/>
<path d="M917.12 804.98H860.8V861.3H917.12V804.98Z" fill="black"/>
<path d="M973.44 804.98H917.12V861.3H973.44V804.98Z" fill="black"/>
<path d="M1142.4 804.98H1086.08V861.3H1142.4V804.98Z" fill="black"/>
<path d="M1198.72 804.98H1142.4V861.3H1198.72V804.98Z" fill="black"/>
<path d="M1255.04 804.98H1198.72V861.3H1255.04V804.98Z" fill="black"/>
<path d="M1311.36 804.98H1255.04V861.3H1311.36V804.98Z" fill="black"/>
<path d="M1367.68 804.98H1311.36V861.3H1367.68V804.98Z" fill="black"/>
<path d="M1424 804.98H1367.68V861.3H1424V804.98Z" fill="black"/>
<path d="M184.96 861.3L128.64 861.3V917.62H184.96V861.3Z" fill="black"/>
<path d="M241.28 861.3H184.96V917.62H241.28V861.3Z" fill="black"/>
<path d="M466.56 861.3H410.24V917.62H466.56V861.3Z" fill="black"/>
<path d="M522.88 861.3H466.56V917.62H522.88V861.3Z" fill="black"/>
<path d="M579.2 861.3L522.88 861.3V917.62H579.2V861.3Z" fill="black"/>
<path d="M635.52 861.3L579.2 861.3V917.62H635.52V861.3Z" fill="black"/>
<path d="M691.84 861.3H635.52V917.62H691.84V861.3Z" fill="black"/>
<path d="M748.16 861.3H691.84V917.62H748.16V861.3Z" fill="black"/>
<path d="M804.48 861.3H748.16V917.62H804.48V861.3Z" fill="black"/>
<path d="M860.8 861.3H804.48V917.62H860.8L860.8 861.3Z" fill="black"/>
<path d="M917.12 861.3H860.8L860.8 917.62H917.12V861.3Z" fill="black"/>
<path d="M1198.72 861.3H1142.4V917.62H1198.72V861.3Z" fill="black"/>
<path d="M1255.04 861.3H1198.72V917.62H1255.04V861.3Z" fill="black"/>
<path d="M128.64 917.62H72.32V973.94H128.64V917.62Z" fill="black"/>
<path d="M184.96 917.62H128.64V973.94H184.96V917.62Z" fill="black"/>
<path d="M297.6 917.62H241.28V973.94H297.6V917.62Z" fill="black"/>
<path d="M353.92 917.62H297.6V973.94H353.92V917.62Z" fill="black"/>
<path d="M410.24 917.62H353.92V973.94H410.24V917.62Z" fill="black"/>
<path d="M466.56 917.62H410.24V973.94H466.56V917.62Z" fill="black"/>
<path d="M522.88 917.62H466.56V973.94H522.88V917.62Z" fill="black"/>
<path d="M635.52 917.62H579.2V973.94H635.52V917.62Z" fill="black"/>
<path d="M748.16 917.62H691.84V973.94H748.16V917.62Z" fill="black"/>
<path d="M804.48 917.62H748.16V973.94H804.48V917.62Z" fill="black"/>
<path d="M973.44 917.62H917.12V973.94H973.44V917.62Z" fill="black"/>
<path d="M1029.76 917.62H973.44V973.94H1029.76V917.62Z" fill="black"/>
<path d="M1086.08 917.62H1029.76V973.94H1086.08V917.62Z" fill="black"/>
<path d="M1142.4 917.62H1086.08V973.94H1142.4V917.62Z" fill="black"/>
<path d="M1198.72 917.62H1142.4V973.94H1198.72V917.62Z" fill="black"/>
<path d="M1311.36 917.62H1255.04V973.94H1311.36V917.62Z" fill="black"/>
<path d="M1424 917.62H1367.68V973.94H1424V917.62Z" fill="black"/>
<path d="M522.88 973.94H466.56V1030.26H522.88V973.94Z" fill="black"/>
<path d="M635.52 973.94H579.2V1030.26H635.52V973.94Z" fill="black"/>
<path d="M748.16 973.94H691.84V1030.26H748.16V973.94Z" fill="black"/>
<path d="M860.8 973.94H804.48V1030.26H860.8V973.94Z" fill="black"/>
<path d="M973.44 973.94H917.12V1030.26H973.44V973.94Z" fill="black"/>
<path d="M1198.72 973.94H1142.4V1030.26H1198.72V973.94Z" fill="black"/>
<path d="M1255.04 973.94H1198.72V1030.26H1255.04V973.94Z" fill="black"/>
<path d="M1424 973.94H1367.68V1030.26H1424V973.94Z" fill="black"/>
<path d="M72.32 1030.26H16V1086.58H72.32V1030.26Z" fill="black"/>
<path d="M128.64 1030.26H72.32V1086.58H128.64V1030.26Z" fill="black"/>
<path d="M184.96 1030.26H128.64V1086.58H184.96V1030.26Z" fill="black"/>
<path d="M241.28 1030.26H184.96V1086.58H241.28V1030.26Z" fill="black"/>
<path d="M297.6 1030.26H241.28V1086.58H297.6V1030.26Z" fill="black"/>
<path d="M353.92 1030.26H297.6V1086.58H353.92V1030.26Z" fill="black"/>
<path d="M410.24 1030.26H353.92V1086.58H410.24V1030.26Z" fill="black"/>
<path d="M748.16 1030.26H691.84V1086.58H748.16V1030.26Z" fill="black"/>
<path d="M973.44 1030.26H917.12V1086.58H973.44V1030.26Z" fill="black"/>
<path d="M1086.08 1030.26H1029.76V1086.58H1086.08V1030.26Z" fill="black"/>
<path d="M1198.72 1030.26H1142.4V1086.58H1198.72V1030.26Z" fill="black"/>
<path d="M1255.04 1030.26H1198.72V1086.58H1255.04V1030.26Z" fill="black"/>
<path d="M1367.68 1030.26H1311.36V1086.58H1367.68V1030.26Z" fill="black"/>
<path d="M1424 1030.26H1367.68V1086.58H1424V1030.26Z" fill="black"/>
<path d="M72.32 1086.58H16V1142.9H72.32V1086.58Z" fill="black"/>
<path d="M410.24 1086.58H353.92L353.92 1142.9H410.24V1086.58Z" fill="black"/>
<path d="M579.2 1086.58H522.88V1142.9H579.2V1086.58Z" fill="black"/>
<path d="M691.84 1086.58H635.52V1142.9H691.84V1086.58Z" fill="black"/>
<path d="M748.16 1086.58H691.84V1142.9H748.16V1086.58Z" fill="black"/>
<path d="M973.44 1086.58H917.12V1142.9H973.44V1086.58Z" fill="black"/>
<path d="M1198.72 1086.58H1142.4V1142.9H1198.72V1086.58Z" fill="black"/>
<path d="M1311.36 1086.58H1255.04V1142.9H1311.36V1086.58Z" fill="black"/>
<path d="M72.32 1142.9H16V1199.22H72.32V1142.9Z" fill="black"/>
<path d="M184.96 1142.9H128.64V1199.22H184.96V1142.9Z" fill="black"/>
<path d="M241.28 1142.9H184.96V1199.22H241.28V1142.9Z" fill="black"/>
<path d="M297.6 1142.9H241.28V1199.22H297.6V1142.9Z" fill="black"/>
<path d="M410.24 1142.9H353.92V1199.22H410.24V1142.9Z" fill="black"/>
<path d="M522.88 1142.9H466.56V1199.22H522.88V1142.9Z" fill="black"/>
<path d="M579.2 1142.9H522.88V1199.22H579.2V1142.9Z" fill="black"/>
<path d="M691.84 1142.9H635.52V1199.22H691.84V1142.9Z" fill="black"/>
<path d="M804.48 1142.9H748.16V1199.22H804.48V1142.9Z" fill="black"/>
<path d="M973.44 1142.9H917.12V1199.22H973.44V1142.9Z" fill="black"/>
<path d="M1029.76 1142.9H973.44V1199.22H1029.76V1142.9Z" fill="black"/>
<path d="M1086.08 1142.9H1029.76V1199.22H1086.08V1142.9Z" fill="black"/>
<path d="M1142.4 1142.9H1086.08V1199.22H1142.4V1142.9Z" fill="black"/>
<path d="M1198.72 1142.9H1142.4V1199.22H1198.72V1142.9Z" fill="black"/>
<path d="M1311.36 1142.9H1255.04V1199.22H1311.36V1142.9Z" fill="black"/>
<path d="M72.32 1199.22H16V1255.54H72.32V1199.22Z" fill="black"/>
<path d="M184.96 1199.22H128.64V1255.54H184.96V1199.22Z" fill="black"/>
<path d="M241.28 1199.22H184.96V1255.54H241.28V1199.22Z" fill="black"/>
<path d="M297.6 1199.22H241.28V1255.54H297.6V1199.22Z" fill="black"/>
<path d="M410.24 1199.22H353.92V1255.54H410.24V1199.22Z" fill="black"/>
<path d="M579.2 1199.22H522.88V1255.54H579.2V1199.22Z" fill="black"/>
<path d="M691.84 1199.22H635.52V1255.54H691.84V1199.22Z" fill="black"/>
<path d="M748.16 1199.22H691.84V1255.54H748.16V1199.22Z" fill="black"/>
<path d="M804.48 1199.22H748.16V1255.54H804.48V1199.22Z" fill="black"/>
<path d="M917.12 1199.22H860.8V1255.54H917.12V1199.22Z" fill="black"/>
<path d="M973.44 1199.22H917.12V1255.54H973.44V1199.22Z" fill="black"/>
<path d="M1029.76 1199.22H973.44V1255.54H1029.76V1199.22Z" fill="black"/>
<path d="M1086.08 1199.22H1029.76V1255.54H1086.08V1199.22Z" fill="black"/>
<path d="M1142.4 1199.22H1086.08V1255.54H1142.4V1199.22Z" fill="black"/>
<path d="M1198.72 1199.22H1142.4V1255.54H1198.72V1199.22Z" fill="black"/>
<path d="M1255.04 1199.22H1198.72V1255.54H1255.04V1199.22Z" fill="black"/>
<path d="M1367.68 1199.22H1311.36V1255.54H1367.68V1199.22Z" fill="black"/>
<path d="M1424 1199.22H1367.68V1255.54H1424V1199.22Z" fill="black"/>
<path d="M72.32 1255.54H16V1311.86H72.32V1255.54Z" fill="black"/>
<path d="M184.96 1255.54H128.64V1311.86H184.96V1255.54Z" fill="black"/>
<path d="M241.28 1255.54H184.96V1311.86H241.28V1255.54Z" fill="black"/>
<path d="M297.6 1255.54H241.28V1311.86H297.6V1255.54Z" fill="black"/>
<path d="M410.24 1255.54H353.92V1311.86H410.24V1255.54Z" fill="black"/>
<path d="M522.88 1255.54H466.56V1311.86H522.88V1255.54Z" fill="black"/>
<path d="M635.52 1255.54H579.2V1311.86H635.52V1255.54Z" fill="black"/>
<path d="M691.84 1255.54H635.52V1311.86H691.84V1255.54Z" fill="black"/>
<path d="M804.48 1255.54H748.16V1311.86H804.48V1255.54Z" fill="black"/>
<path d="M917.12 1255.54H860.8V1311.86H917.12V1255.54Z" fill="black"/>
<path d="M973.44 1255.54H917.12V1311.86H973.44V1255.54Z" fill="black"/>
<path d="M1255.04 1255.54H1198.72V1311.86H1255.04V1255.54Z" fill="black"/>
<path d="M1367.68 1255.54H1311.36V1311.86H1367.68V1255.54Z" fill="black"/>
<path d="M72.32 1311.86H16V1368.18H72.32V1311.86Z" fill="black"/>
<path d="M410.24 1311.86H353.92V1368.18H410.24V1311.86Z" fill="black"/>
<path d="M522.88 1311.86H466.56V1368.18H522.88V1311.86Z" fill="black"/>
<path d="M635.52 1311.86H579.2V1368.18H635.52V1311.86Z" fill="black"/>
<path d="M973.44 1311.86H917.12V1368.18H973.44V1311.86Z" fill="black"/>
<path d="M1086.08 1311.86H1029.76V1368.18H1086.08V1311.86Z" fill="black"/>
<path d="M1142.4 1311.86H1086.08V1368.18H1142.4V1311.86Z" fill="black"/>
<path d="M1198.72 1311.86H1142.4V1368.18H1198.72V1311.86Z" fill="black"/>
<path d="M1255.04 1311.86H1198.72V1368.18H1255.04V1311.86Z" fill="black"/>
<path d="M1311.36 1311.86H1255.04V1368.18H1311.36V1311.86Z" fill="black"/>
<path d="M1367.68 1311.86H1311.36V1368.18H1367.68V1311.86Z" fill="black"/>
<path d="M72.32 1368.18H16V1424.5H72.32V1368.18Z" fill="black"/>
<path d="M128.64 1368.18H72.32V1424.5H128.64V1368.18Z" fill="black"/>
<path d="M184.96 1368.18H128.64V1424.5H184.96V1368.18Z" fill="black"/>
<path d="M241.28 1368.18H184.96V1424.5H241.28V1368.18Z" fill="black"/>
<path d="M297.6 1368.18H241.28V1424.5H297.6V1368.18Z" fill="black"/>
<path d="M353.92 1368.18H297.6V1424.5H353.92L353.92 1368.18Z" fill="black"/>
<path d="M410.24 1368.18H353.92L353.92 1424.5H410.24V1368.18Z" fill="black"/>
<path d="M522.88 1368.18H466.56V1424.5H522.88V1368.18Z" fill="black"/>
<path d="M635.52 1368.18H579.2V1424.5H635.52V1368.18Z" fill="black"/>
<path d="M860.8 1368.18H804.48V1424.5H860.8V1368.18Z" fill="black"/>
<path d="M1086.08 1368.18H1029.76V1424.5H1086.08V1368.18Z" fill="black"/>
<path d="M1142.4 1368.18H1086.08V1424.5H1142.4V1368.18Z" fill="black"/>
<path d="M1198.72 1368.18H1142.4V1424.5H1198.72V1368.18Z" fill="black"/>
<path d="M1255.04 1368.18H1198.72V1424.5H1255.04V1368.18Z" fill="black"/>
<path d="M1311.36 1368.18H1255.04V1424.5H1311.36V1368.18Z" fill="black"/>
<path d="M1367.68 1368.18H1311.36V1424.5H1367.68V1368.18Z" fill="black"/>
<path d="M1424 1368.18H1367.68V1424.5H1424V1368.18Z" fill="black"/>
</g>
<defs>
<clipPath id="clip0_354_1892">
<rect width="1440" height="1440" fill="white" transform="translate(0 0.5)"/>
</clipPath>
</defs>
</svg>
